inDegrees=yes
name=ik_S55_A01_T02
DataType=double
version=3
OpenSimVersion=4.3-2021-08-27-4bc7ad9
endheader
time	pelvis_tilt	pelvis_list	pelvis_rotation	pelvis_tx	pelvis_ty	pelvis_tz	hip_flexion_r	hip_adduction_r	hip_rotation_r	knee_angle_r	knee_angle_r_beta	ankle_angle_r	subtalar_angle_r	mtp_angle_r	hip_flexion_l	hip_adduction_l	hip_rotation_l	knee_angle_l	knee_angle_l_beta	ankle_angle_l	subtalar_angle_l	mtp_angle_l	lumbar_extension	lumbar_bending	lumbar_rotation	arm_flex_r	arm_add_r	arm_rot_r	elbow_flex_r	pro_sup_r	wrist_flex_r	wrist_dev_r	arm_flex_l	arm_add_l	arm_rot_l	elbow_flex_l	pro_sup_l	wrist_flex_l	wrist_dev_l
11.19999999999985	-0.8463892145613657	7.553910009276664	93.27201561895473	0	0.9399999999999999	0	-4.178676527499691	4.015254294101713	-1.745118264531371	7.729430810321852	0.1349040169452096	0	0	0	17.69541183986933	-2.936240255001277	-2.388749664741253	20.70697743891402	0.3614049344452327	0	0	0	0	0	0	31.65606134765884	-31.65606134765884	4.378550863632428	76.19742313279079	85.62144938157712	0	0	31.65606134765884	-31.65606134765884	4.378550863632428	76.19742313279079	85.62144938146156	0	0
11.21999999999985	-0.8313298094946561	7.565202206030079	93.26173643203452	0	0.9399999999999999	0	-4.927717183320137	4.041432514642601	-1.626853243101532	7.930576235944037	0.1384146668976421	0	0	0	18.17475143773439	-1.861111441756031	-2.104906332204834	20.86097387143532	0.3640926792290546	0	0	0	0	0	0	31.65854636900239	-31.6585463690024	4.378780745539829	76.2007067791772	85.62121949968162	0	0	31.65854636900239	-31.6585463690024	4.378780745539829	76.2007067791772	85.62121949956608	0	0
11.23999999999985	-0.8319725402344077	7.555676134840279	93.26456040481528	0	0.9399999999999999	0	-5.550999495266241	4.061949279819957	-1.636536168933362	8.468080988692369	0.1477958945782186	0	0	0	17.77503175858945	-1.272667384464314	-1.196799062989631	12.49571871141572	0.2180914339172675	0	0	0	0	0	0	31.66599732225069	-31.6659973222507	4.379466265816709	76.2104972931338	85.62053397943993	0	0	31.66599732225069	-31.6659973222507	4.379466265816709	76.2104972931338	85.62053397932455	0	0
11.25999999999985	-0.6893377667507579	7.475744521397372	93.10747708944946	0	0.9399999999999999	0	-6.075536052619825	4.210089712833387	-1.574264135488287	9.099971663822952	0.1588244673718971	0	0	0	17.62104085223524	-1.128069493696361	-0.7729773640361519	6.350576163722034	0.11083846345562	0	0	0	0	0	0	31.67175379186411	-31.67175379186412	4.379993717524633	76.21802940308656	85.62000652775917	0	0	31.67175379186411	-31.67175379186412	4.379993717524633	76.21802940308656	85.62000652764388	0	0
11.27999999999985	-0.2250355866229783	6.744887114125908	92.70515298516789	0	0.9399999999999999	0	-6.005300949876227	4.62574893093342	-1.488003923875362	9.728033613032117	0.1697862162920904	0	0	0	18.16554034745223	-1.390150540338699	-0.6601146729388303	4.22234803607174	0.07369387539456818	0	0	0	0	0	0	31.67486770092725	-31.67486770092725	4.38028220653057	76.22215026154507	85.6197180387681	0	0	31.67486770092725	-31.67486770092725	4.38028220653057	76.22215026154507	85.61971803865285	0	0
11.29999999999985	-0.1515701818013665	6.697579202185007	92.66371403269784	0	0.9399999999999999	0	-6.569188223231335	4.713831238506547	-1.958263469622725	9.862720577692546	0.1721369472849321	0	0	0	17.94045259333229	-1.169301764876082	-0.2098244569926667	2.644049662079767	0.0461473721895354	0	0	0	0	0	0	31.6777126990682	-31.67771269906821	4.380546333324481	76.2259232954665	85.61945391198783	0	0	31.6777126990682	-31.67771269906821	4.380546333324481	76.2259232954665	85.61945391187258	0	0
11.31999999999985	0.01692168210354183	6.863305983290978	92.57730851756426	0	0.9399999999999999	0	-7.378153147805244	4.752057962047126	-2.661328424220057	11.33462489863067	0.1978265239596337	0	0	0	17.37319637910892	-1.075413561061227	0.1431798534816064	1.585241073579623	0.02766767617181411	0	0	0	0	0	0	31.68063366998209	-31.6806336699821	4.380817397663592	76.22979536949853	85.6191828476627	0	0	31.68063366998209	-31.6806336699821	4.380817397663592	76.22979536949853	85.61918284754752	0	0
11.33999999999985	0.05703492496783114	7.133596703059213	92.6027586945403	0	0.9399999999999999	0	-8.195409464663861	4.760394423247163	-3.429340019301164	11.55488346358061	0.2016707611237279	0	0	0	16.6098426852545	-0.9421476269340857	0.02836283717090208	1.32947031099413	0.02320363423436054	0	0	0	0	0	0	31.68255363434622	-31.68255363434622	4.38099529820197	76.23233651806609	85.61900494713349	0	0	31.68255363434622	-31.68255363434622	4.38099529820197	76.23233651806609	85.61900494701833	0	0
11.35999999999985	0.08283803930145248	7.278849461048376	92.56089087689202	0	0.9399999999999999	0	-8.868684248996116	4.570813270037949	-4.297267383350356	12.48580726086545	0.2179184464715167	0	0	0	16.436017397258	-0.9329747157145553	-0.0826153748053257	2.046351554321196	0.03571557227620847	0	0	0	0	0	0	31.68638709417099	-31.686387094171	4.381351015584485	76.23741777267051	85.61864922976932	0	0	31.68638709417099	-31.686387094171	4.381351015584485	76.23741777267051	85.61864922965425	0	0
11.37999999999985	0.009599519315991305	7.323516737020661	92.15936827466895	0	0.9399999999999999	0	-9.394646704307513	4.158692844706635	-4.860531654530226	13.58123811838266	0.2370373216631369	0	0	0	15.79026109235325	-0.9552890307565972	-0.8111545100354781	2.650616758473489	0.04626198964390169	0	0	0	0	0	0	31.69180015192563	-31.69180015192563	4.381852685799361	76.24458357590113	85.61814755958034	0	0	31.69180015192563	-31.69180015192563	4.381852685799361	76.24458357590113	85.61814755946536	0	0
11.39999999999985	-0.3184601762655908	7.358028585939605	92.09607737991782	0	0.9399999999999999	0	-9.746911127424676	3.439467849552893	-5.773059563923012	14.83471227245525	0.2589145727403542	0	0	0	14.87738133925078	-0.5794277395762495	-1.383800205396215	1.924381773819596	0.03358679801852076	0	0	0	0	0	0	31.6970423831216	-31.69704238312161	4.382338045744703	76.25151616023545	85.61766219966006	0	0	31.6970423831216	-31.69704238312161	4.382338045744703	76.25151616023545	85.61766219954515	0	0
11.41999999999985	-0.6597985871917801	7.407258238225868	92.17744233104342	0	0.9399999999999999	0	-9.9104197843952	2.739139808522594	-6.800172503247785	15.58406630774179	0.2719932679192101	0	0	0	13.75434961350848	-0.4701761125107918	-1.365482888083456	2.278510138646638	0.03976750395945634	0	0	0	0	0	0	31.69913752076969	-31.6991375207697	4.382531959286883	76.25428587137036	85.61746828612785	0	0	31.69913752076969	-31.6991375207697	4.382531959286883	76.25428587137036	85.61746828601301	0	0
